<svg width="500.0" height="500.0" viewBox="-1.0 -1.0 2.0 2.0" preserveAspectRatio="xMidYMid"><defs><filter id="f1" x="0.0" y="0.0"><feGaussianBlur in="SourceGraphic" stdDeviation="18.0"></feGaussianBlur></filter><clipPath id="clip-sphere"><path d="M-5.704108682505512e-17,0.95L-0.0993020401042712,0.9447958005998596L-0.19751610627687108,0.9292402206971153L-0.2935661446561995,0.903503690480396L-0.3863998109220096,0.8678681847604711L-0.474999999999999,0.8227241335952172L-0.5583959896778483,0.7685661446562009L-0.6356740760409141,0.7059875842035257L-0.7059875842035233,0.6356740760409167L-0.7685661446561988,0.5583959896778512L-0.8227241335952153,0.4750000000000022L-0.8678681847604697,0.38639981092201275L-0.9035036904803949,0.293566144656203L-0.9292402206971146,0.19751610627687471L-0.9447958005998592,0.09930204010427447L-0.95,3.986164601737598e-15L-0.9447958005998601,-0.09930204010426655L-0.9292402206971162,-0.19751610627686692L-0.9035036904803974,-0.2935661446561954L-0.8678681847604729,-0.3863998109220055L-0.8227241335952193,-0.47499999999999526L-0.7685661446562034,-0.5583959896778448L-0.7059875842035285,-0.6356740760409109L-0.63567407604092,-0.7059875842035203L-0.5583959896778548,-0.7685661446561962L-0.47500000000000586,-0.8227241335952132L-0.3863998109220167,-0.8678681847604679L-0.2935661446562069,-0.9035036904803936L-0.19751610627687913,-0.9292402206971137L-0.09930204010427833,-0.9447958005998588L-5.816928159930563e-17,-0.95L0.09930204010426218,-0.9447958005998606L0.1975161062768626,-0.9292402206971172L0.29356614465619146,-0.9035036904803987L0.3863998109220015,-0.8678681847604747L0.47499999999999165,-0.8227241335952215L0.5583959896778412,-0.768566144656206L0.635674076040908,-0.705987584203531L0.7059875842035179,-0.6356740760409225L0.7685661446561943,-0.5583959896778572L0.822724133595212,-0.4750000000000081L0.867868184760467,-0.3863998109220187L0.9035036904803929,-0.2935661446562088L0.9292402206971134,-0.19751610627688018L0.9447958005998588,-0.09930204010427962L0.95,-8.743238290589751e-15L0.9447958005998606,0.09930204010426223L0.9292402206971171,0.19751610627686308L0.9035036904803985,0.29356614465619213L0.8678681847604741,0.3863998109220027L0.8227241335952207,0.47499999999999304L0.7685661446562047,0.558395989677843L0.7059875842035298,0.6356740760409095L0.635674076040921,0.7059875842035195L0.5583959896778555,0.7685661446561957L0.47500000000000653,0.8227241335952129L0.3863998109220171,0.8678681847604677L0.2935661446562073,0.9035036904803935L0.1975161062768785,0.9292402206971138L0.09930204010427833,0.9447958005998588L5.81690830047391e-17,0.95Z"></path></clipPath><linearGradient id="red-gradient" x1="-0.7" y1="-0.7" x2="1.2" y2="1.2" gradientUnits="userSpaceOnUse"><stop offset="0.0" stop-color="#ff3a37"></stop><stop offset="1.0" stop-color="#000000"></stop></linearGradient><linearGradient id="white-gradient" x1="-0.7" y1="-0.7" x2="1.2" y2="1.2" gradientUnits="userSpaceOnUse"><stop offset="0.0" stop-color="#f8f8f8"></stop><stop offset="1.0" stop-color="#505050"></stop></linearGradient></defs><path d="M-5.704108682505512e-17,0.95L-0.0993020401042712,0.9447958005998596L-0.19751610627687108,0.9292402206971153L-0.2935661446561995,0.903503690480396L-0.3863998109220096,0.8678681847604711L-0.474999999999999,0.8227241335952172L-0.5583959896778483,0.7685661446562009L-0.6356740760409141,0.7059875842035257L-0.7059875842035233,0.6356740760409167L-0.7685661446561988,0.5583959896778512L-0.8227241335952153,0.4750000000000022L-0.8678681847604697,0.38639981092201275L-0.9035036904803949,0.293566144656203L-0.9292402206971146,0.19751610627687471L-0.9447958005998592,0.09930204010427447L-0.95,3.986164601737598e-15L-0.9447958005998601,-0.09930204010426655L-0.9292402206971162,-0.19751610627686692L-0.9035036904803974,-0.2935661446561954L-0.8678681847604729,-0.3863998109220055L-0.8227241335952193,-0.47499999999999526L-0.7685661446562034,-0.5583959896778448L-0.7059875842035285,-0.6356740760409109L-0.63567407604092,-0.7059875842035203L-0.5583959896778548,-0.7685661446561962L-0.47500000000000586,-0.8227241335952132L-0.3863998109220167,-0.8678681847604679L-0.2935661446562069,-0.9035036904803936L-0.19751610627687913,-0.9292402206971137L-0.09930204010427833,-0.9447958005998588L-5.816928159930563e-17,-0.95L0.09930204010426218,-0.9447958005998606L0.1975161062768626,-0.9292402206971172L0.29356614465619146,-0.9035036904803987L0.3863998109220015,-0.8678681847604747L0.47499999999999165,-0.8227241335952215L0.5583959896778412,-0.768566144656206L0.635674076040908,-0.705987584203531L0.7059875842035179,-0.6356740760409225L0.7685661446561943,-0.5583959896778572L0.822724133595212,-0.4750000000000081L0.867868184760467,-0.3863998109220187L0.9035036904803929,-0.2935661446562088L0.9292402206971134,-0.19751610627688018L0.9447958005998588,-0.09930204010427962L0.95,-8.743238290589751e-15L0.9447958005998606,0.09930204010426223L0.9292402206971171,0.19751610627686308L0.9035036904803985,0.29356614465619213L0.8678681847604741,0.3863998109220027L0.8227241335952207,0.47499999999999304L0.7685661446562047,0.558395989677843L0.7059875842035298,0.6356740760409095L0.635674076040921,0.7059875842035195L0.5583959896778555,0.7685661446561957L0.47500000000000653,0.8227241335952129L0.3863998109220171,0.8678681847604677L0.2935661446562073,0.9035036904803935L0.1975161062768785,0.9292402206971138L0.09930204010427833,0.9447958005998588L5.81690830047391e-17,0.95Z" fill="url(#white-gradient)"></path><path d="M-5.704108682505512e-17,0.95L-0.0993020401042712,0.9447958005998596L-0.19751610627687108,0.9292402206971153L-0.2935661446561995,0.903503690480396L-0.3863998109220096,0.8678681847604711L-0.474999999999999,0.8227241335952172L-0.5583959896778483,0.7685661446562009L-0.6356740760409141,0.7059875842035257L-0.7059875842035233,0.6356740760409167L-0.7685661446561988,0.5583959896778512L-0.8227241335952153,0.4750000000000022L-0.8678681847604697,0.38639981092201275L-0.9035036904803949,0.293566144656203L-0.9292402206971146,0.19751610627687471L-0.9447958005998592,0.09930204010427447L-0.95,3.986164601737598e-15L-0.9447958005998601,-0.09930204010426655L-0.9292402206971162,-0.19751610627686692L-0.9035036904803974,-0.2935661446561954L-0.8678681847604729,-0.3863998109220055L-0.8227241335952193,-0.47499999999999526L-0.7685661446562034,-0.5583959896778448L-0.7059875842035285,-0.6356740760409109L-0.63567407604092,-0.7059875842035203L-0.5583959896778548,-0.7685661446561962L-0.47500000000000586,-0.8227241335952132L-0.3863998109220167,-0.8678681847604679L-0.2935661446562069,-0.9035036904803936L-0.19751610627687913,-0.9292402206971137L-0.09930204010427833,-0.9447958005998588L-5.816928159930563e-17,-0.95L0.09930204010426218,-0.9447958005998606L0.1975161062768626,-0.9292402206971172L0.29356614465619146,-0.9035036904803987L0.3863998109220015,-0.8678681847604747L0.47499999999999165,-0.8227241335952215L0.5583959896778412,-0.768566144656206L0.635674076040908,-0.705987584203531L0.7059875842035179,-0.6356740760409225L0.7685661446561943,-0.5583959896778572L0.822724133595212,-0.4750000000000081L0.867868184760467,-0.3863998109220187L0.9035036904803929,-0.2935661446562088L0.9292402206971134,-0.19751610627688018L0.9447958005998588,-0.09930204010427962L0.95,-8.743238290589751e-15L0.9447958005998606,0.09930204010426223L0.9292402206971171,0.19751610627686308L0.9035036904803985,0.29356614465619213L0.8678681847604741,0.3863998109220027L0.8227241335952207,0.47499999999999304L0.7685661446562047,0.558395989677843L0.7059875842035298,0.6356740760409095L0.635674076040921,0.7059875842035195L0.5583959896778555,0.7685661446561957L0.47500000000000653,0.8227241335952129L0.3863998109220171,0.8678681847604677L0.2935661446562073,0.9035036904803935L0.1975161062768785,0.9292402206971138L0.09930204010427833,0.9447958005998588L5.81690830047391e-17,0.95Z" fill="url(#red-gradient)" style="opacity: 0;"></path><path d="M0.9166754442941492,-0.24941156714981L0.9126026643688621,-0.25805978765050086L0.897577127997899,-0.27114956613305224L0.8727175487825014,-0.2812685732273554L0.8382962934747549,-0.2883059429741466L0.7946904885509213,-0.2921845724778157L0.7423778883348481,-0.29286196666186537L0.6819316406216176,-0.29033070385386106L0.6140140071503666,-0.2846185170988282L0.5393691077260847,-0.27578799031020673L0.45881476748731376,-0.2639358725873994L0.3732335566427891,-0.2491920182123924L0.2835631208475432,-0.23171796393906824L0.19078590816089325,-0.21170515916272617L0.09591840513991524,-0.1893728683604447L-5.8050122848652e-17,-0.1649657687835838L-5.8050122848652e-17,-0.1649657687835838L-0.09591840513990837,-0.1387512697226252L-0.1907859081608862,-0.111016582715016L-0.28356312084753565,-0.08206557479546747L-0.37323355664278185,-0.05221543926513412L-0.4588147674873064,-0.021793220455428988L-0.5393691077260776,0.008867769438110431L-0.6140140071503598,0.039431602193985935L-0.6819316406216113,0.06956341406463082L-0.7423778883348424,0.09893307461370339L-0.7946904885509163,0.12721880369423133L-0.8382962934747504,0.15411069693923915L-0.8727175487824982,0.17931412113884398L-0.8975771279978967,0.20255294230335946L-0.9126026643688608,0.2235725510450712L-0.917629534974615,0.24214265213196903L-0.9166754442941492,0.2494115671498099L-0.9166756937052581,0.24941065047424016L-0.9377245603584383,0.1522256512568547L-0.9484995204968516,0.053372835949033685L-0.9488825214024164,-0.0460647433184289L-0.9388693668370631,-0.14499762761842752L-0.9185697630175971,-0.24234188756753436L-0.8882061166514296,-0.3370309990831511L-0.8481110982021498,-0.42802752844454206L-0.7987239970823102,-0.514334498633776L-0.7405859087066949,-0.5950063124245648L-0.6743338061377244,-0.6691591125433545L-0.600693561275288,-0.7359804653945726L-0.5204719920523107,-0.794738262253114L-0.43454802276864185,-0.844788740400737L-0.34386305441249965,-0.8855835363251205L-0.24941065047424432,-0.916675693705257L-0.15222565125685894,-0.9377245603584377L-0.05337283594903819,-0.9484995204968514L0.04606474331842473,-0.9488825214024166L0.1449976276184232,-0.9388693668370638L0.24234188756753036,-0.9185697630175982L0.33703099908314715,-0.8882061166514311L0.4280275284445381,-0.8481110982021518L0.5143344986337722,-0.7987239970823126L0.5950063124245615,-0.7405859087066976L0.6691591125433518,-0.6743338061377271L0.7359804653945704,-0.6006935612752907L0.7947382622531123,-0.5204719920523133L0.8447887404007358,-0.4345480227686441L0.8855835363251198,-0.34386305441250187L0.9166756937052567,-0.24941065047424596Z" fill="url(#white-gradient)"></path><path d="M0.9166754442941492,-0.24941156714981L0.9126026643688621,-0.25805978765050086L0.897577127997899,-0.27114956613305224L0.8727175487825014,-0.2812685732273554L0.8382962934747549,-0.2883059429741466L0.7946904885509213,-0.2921845724778157L0.7423778883348481,-0.29286196666186537L0.6819316406216176,-0.29033070385386106L0.6140140071503666,-0.2846185170988282L0.5393691077260847,-0.27578799031020673L0.45881476748731376,-0.2639358725873994L0.3732335566427891,-0.2491920182123924L0.2835631208475432,-0.23171796393906824L0.19078590816089325,-0.21170515916272617L0.09591840513991524,-0.1893728683604447L-5.8050122848652e-17,-0.1649657687835838L-5.8050122848652e-17,-0.1649657687835838L-0.09591840513990837,-0.1387512697226252L-0.1907859081608862,-0.111016582715016L-0.28356312084753565,-0.08206557479546747L-0.37323355664278185,-0.05221543926513412L-0.4588147674873064,-0.021793220455428988L-0.5393691077260776,0.008867769438110431L-0.6140140071503598,0.039431602193985935L-0.6819316406216113,0.06956341406463082L-0.7423778883348424,0.09893307461370339L-0.7946904885509163,0.12721880369423133L-0.8382962934747504,0.15411069693923915L-0.8727175487824982,0.17931412113884398L-0.8975771279978967,0.20255294230335946L-0.9126026643688608,0.2235725510450712L-0.917629534974615,0.24214265213196903L-0.9166754442941492,0.2494115671498099L-0.9166756937052581,0.24941065047424016L-0.9377245603584383,0.1522256512568547L-0.9484995204968516,0.053372835949033685L-0.9488825214024164,-0.0460647433184289L-0.9388693668370631,-0.14499762761842752L-0.9185697630175971,-0.24234188756753436L-0.8882061166514296,-0.3370309990831511L-0.8481110982021498,-0.42802752844454206L-0.7987239970823102,-0.514334498633776L-0.7405859087066949,-0.5950063124245648L-0.6743338061377244,-0.6691591125433545L-0.600693561275288,-0.7359804653945726L-0.5204719920523107,-0.794738262253114L-0.43454802276864185,-0.844788740400737L-0.34386305441249965,-0.8855835363251205L-0.24941065047424432,-0.916675693705257L-0.15222565125685894,-0.9377245603584377L-0.05337283594903819,-0.9484995204968514L0.04606474331842473,-0.9488825214024166L0.1449976276184232,-0.9388693668370638L0.24234188756753036,-0.9185697630175982L0.33703099908314715,-0.8882061166514311L0.4280275284445381,-0.8481110982021518L0.5143344986337722,-0.7987239970823126L0.5950063124245615,-0.7405859087066976L0.6691591125433518,-0.6743338061377271L0.7359804653945704,-0.6006935612752907L0.7947382622531123,-0.5204719920523133L0.8447887404007358,-0.4345480227686441L0.8855835363251198,-0.34386305441250187L0.9166756937052567,-0.24941065047424596Z" fill="url(#red-gradient)" style="opacity: 1;"></path><path d="M-5.8050122848652e-17,-0.1649657687835838L-0.09591840513990837,-0.1387512697226252L-0.1907859081608862,-0.111016582715016L-0.28356312084753565,-0.08206557479546747L-0.37323355664278185,-0.05221543926513412L-0.4588147674873064,-0.021793220455428988L-0.5393691077260776,0.008867769438110431L-0.6140140071503598,0.039431602193985935L-0.6819316406216113,0.06956341406463082L-0.7423778883348424,0.09893307461370339L-0.7946904885509163,0.12721880369423133L-0.8382962934747504,0.15411069693923915L-0.8727175487824982,0.17931412113884398L-0.8975771279978967,0.20255294230335946L-0.9126026643688608,0.2235725510450712L-0.917629534974615,0.24214265213196903L-0.9126026643688617,0.25805978765050147L-0.8975771279978982,0.2711495661330526L-0.8727175487825004,0.2812685732273555L-0.8382962934747537,0.2883059429741466L-0.7946904885509202,0.2921845724778157L-0.7423778883348467,0.29286196666186526L-0.6819316406216165,0.2903307038538609L-0.6140140071503655,0.28461851709882796L-0.5393691077260838,0.2757879903102065L-0.4588147674873132,0.26393587258739926L-0.3732335566427886,0.24919201821239229L-0.2835631208475426,0.231717963939068L-0.19078590816089386,0.21170515916272614L-0.09591840513991544,0.18937286836044462L-1.1457395793768028e-16,0.1649657687835838L0.09591840513989984,0.1387512697226276L0.190785908160878,0.11101658271501835L0.2835631208475277,0.08206557479546983L0.3732335566427739,0.052215439265136825L0.45881476748729927,0.021793220455431545L0.5393691077260709,-0.00886776943810782L0.614014007150354,-0.03943160219398351L0.6819316406216063,-0.06956341406462854L0.7423778883348381,-0.0989330746137013L0.7946904885509128,-0.12721880369422953L0.8382962934747479,-0.1541106969392375L0.8727175487824963,-0.17931412113884262L0.8975771279978955,-0.20255294230335835L0.9126026643688603,-0.22357255104507032L0.9176295349746149,-0.24214265213196828L0.9126026643688621,-0.25805978765050086L0.897577127997899,-0.27114956613305224L0.8727175487825014,-0.2812685732273554L0.8382962934747549,-0.2883059429741466L0.7946904885509213,-0.2921845724778157L0.7423778883348481,-0.29286196666186537L0.6819316406216176,-0.29033070385386106L0.6140140071503666,-0.2846185170988282L0.5393691077260847,-0.27578799031020673L0.45881476748731376,-0.2639358725873994L0.3732335566427891,-0.2491920182123924L0.2835631208475432,-0.23171796393906824L0.19078590816089325,-0.21170515916272617L0.09591840513991524,-0.1893728683604447L5.607396806506237e-17,-0.1649657687835838" stroke="black" stroke-width="0.005" fill="none" style="opacity: 0.3;"></path><path d="M-5.8050122848652e-17,-0.1649657687835838L-0.09591840513990837,-0.1387512697226252L-0.1907859081608862,-0.111016582715016L-0.28356312084753565,-0.08206557479546747L-0.37323355664278185,-0.05221543926513412L-0.4588147674873064,-0.021793220455428988L-0.5393691077260776,0.008867769438110431L-0.6140140071503598,0.039431602193985935L-0.6819316406216113,0.06956341406463082L-0.7423778883348424,0.09893307461370339L-0.7946904885509163,0.12721880369423133L-0.8382962934747504,0.15411069693923915L-0.8727175487824982,0.17931412113884398L-0.8975771279978967,0.20255294230335946L-0.9126026643688608,0.2235725510450712L-0.917629534974615,0.24214265213196903L-0.9166754442941492,0.2494115671498099M0.9166754442941492,-0.24941156714981L0.9126026643688621,-0.25805978765050086L0.897577127997899,-0.27114956613305224L0.8727175487825014,-0.2812685732273554L0.8382962934747549,-0.2883059429741466L0.7946904885509213,-0.2921845724778157L0.7423778883348481,-0.29286196666186537L0.6819316406216176,-0.29033070385386106L0.6140140071503666,-0.2846185170988282L0.5393691077260847,-0.27578799031020673L0.45881476748731376,-0.2639358725873994L0.3732335566427891,-0.2491920182123924L0.2835631208475432,-0.23171796393906824L0.19078590816089325,-0.21170515916272617L0.09591840513991524,-0.1893728683604447L5.607396806506237e-17,-0.1649657687835838" stroke="black" stroke-width="0.04" stroke-linecap="round" fill="none"></path><path d="M-0.1495097608430493,-0.0938011878147083L-0.15597819872290014,-0.10956790632608043L-0.160737706817007,-0.1259141169519168L-0.1637361389586985,-0.14266072718793657L-0.16494064369796874,-0.15962425766794022L-0.16433802422883526,-0.17661885240214187L-0.1619348829763083,-0.19345831505428598L-0.15775754925884,-0.2099581489476717L-0.15185179081880182,-0.2259375784493505L-0.1442823123815238,-0.24122152958579218L-0.1351320467367778,-0.25564254818997234L-0.12450124610978593,-0.2690426345642728L-0.11250638377685403,-0.2812749745582273L-0.09927887795978856,-0.2922055480950807L-0.0849636519803548,-0.3017145975237937L-0.06971754645003704,-0.30969793970892884L-0.05370760089147798,-0.3160681074828833L-0.03710922361851425,-0.32075530795448415L-0.020104269925981504,-0.3237081871745025L-0.0028790496450509058,-0.3248943927802758L0.014377714106270777,-0.3243009284549577L0.03147695261311409,-0.3219342963178857L0.04823132304015214,-0.3178204256860032L0.0644572609989092,-0.31200438898683697L0.07997699171761326,-0.3045499079355463L0.09462047777879763,-0.2955386553864798L0.10822728208482957,-0.2850693605082907L0.12064832564032581,-0.2732567270865057L0.13174752089282088,-0.26023017680484556L0.14140326273647255,-0.24613243127417703L0.14950976084304937,-0.23111794834467805L0.1559781987228998,-0.21535122983330568L0.16073770681700678,-0.19900501920746932L0.16373613895869785,-0.1822584089714494L0.16494064369796813,-0.16529487849144575L0.1643380242288353,-0.148300283757244L0.1619348829763084,-0.13146082110509974L0.15775754925884017,-0.114960987211714L0.15185179081880198,-0.09898155771003508L0.14428231238152397,-0.08369760657359337L0.13513204673677795,-0.0692765879694131L0.12450124610978605,-0.055876501595112565L0.11250638377685414,-0.043644161601158006L0.09927887795978857,-0.032713588064304515L0.08496365198035487,-0.023204538635591552L0.06971754645003707,-0.015221196450456423L0.053707600891478,-0.008851028676501923L0.03710922361851425,-0.0041638282049010844L0.020104269925981504,-0.0012109489848827232L0.0028790496450507566,-0.00002474337910942509L-0.014377714106270988,-0.0006182077044274897L-0.03147695261311429,-0.0029848398414995033L-0.04823132304015241,-0.007098710473382064L-0.06445726099890953,-0.012914747172548388L-0.07997699171761377,-0.020369228223838503L-0.09462047777879824,-0.029380480772905154L-0.10822728208483015,-0.03984977565109425L-0.12064832564032599,-0.0516624090728797L-0.13174752089282107,-0.06468895935453992L-0.1414032627364727,-0.07878670488520843Z" fill="url(#white-gradient)"></path><path d="M-0.1495097608430493,-0.0938011878147083L-0.15597819872290014,-0.10956790632608043L-0.160737706817007,-0.1259141169519168L-0.1637361389586985,-0.14266072718793657L-0.16494064369796874,-0.15962425766794022L-0.16433802422883526,-0.17661885240214187L-0.1619348829763083,-0.19345831505428598L-0.15775754925884,-0.2099581489476717L-0.15185179081880182,-0.2259375784493505L-0.1442823123815238,-0.24122152958579218L-0.1351320467367778,-0.25564254818997234L-0.12450124610978593,-0.2690426345642728L-0.11250638377685403,-0.2812749745582273L-0.09927887795978856,-0.2922055480950807L-0.0849636519803548,-0.3017145975237937L-0.06971754645003704,-0.30969793970892884L-0.05370760089147798,-0.3160681074828833L-0.03710922361851425,-0.32075530795448415L-0.020104269925981504,-0.3237081871745025L-0.0028790496450509058,-0.3248943927802758L0.014377714106270777,-0.3243009284549577L0.03147695261311409,-0.3219342963178857L0.04823132304015214,-0.3178204256860032L0.0644572609989092,-0.31200438898683697L0.07997699171761326,-0.3045499079355463L0.09462047777879763,-0.2955386553864798L0.10822728208482957,-0.2850693605082907L0.12064832564032581,-0.2732567270865057L0.13174752089282088,-0.26023017680484556L0.14140326273647255,-0.24613243127417703L0.14950976084304937,-0.23111794834467805L0.1559781987228998,-0.21535122983330568L0.16073770681700678,-0.19900501920746932L0.16373613895869785,-0.1822584089714494L0.16494064369796813,-0.16529487849144575L0.1643380242288353,-0.148300283757244L0.1619348829763084,-0.13146082110509974L0.15775754925884017,-0.114960987211714L0.15185179081880198,-0.09898155771003508L0.14428231238152397,-0.08369760657359337L0.13513204673677795,-0.0692765879694131L0.12450124610978605,-0.055876501595112565L0.11250638377685414,-0.043644161601158006L0.09927887795978857,-0.032713588064304515L0.08496365198035487,-0.023204538635591552L0.06971754645003707,-0.015221196450456423L0.053707600891478,-0.008851028676501923L0.03710922361851425,-0.0041638282049010844L0.020104269925981504,-0.0012109489848827232L0.0028790496450507566,-0.00002474337910942509L-0.014377714106270988,-0.0006182077044274897L-0.03147695261311429,-0.0029848398414995033L-0.04823132304015241,-0.007098710473382064L-0.06445726099890953,-0.012914747172548388L-0.07997699171761377,-0.020369228223838503L-0.09462047777879824,-0.029380480772905154L-0.10822728208483015,-0.03984977565109425L-0.12064832564032599,-0.0516624090728797L-0.13174752089282107,-0.06468895935453992L-0.1414032627364727,-0.07878670488520843Z" fill="url(#red-gradient)" style="opacity: 0;"></path><path d="M-0.1495097608430493,-0.0938011878147083L-0.15597819872290014,-0.10956790632608043L-0.160737706817007,-0.1259141169519168L-0.1637361389586985,-0.14266072718793657L-0.16494064369796874,-0.15962425766794022L-0.16433802422883526,-0.17661885240214187L-0.1619348829763083,-0.19345831505428598L-0.15775754925884,-0.2099581489476717L-0.15185179081880182,-0.2259375784493505L-0.1442823123815238,-0.24122152958579218L-0.1351320467367778,-0.25564254818997234L-0.12450124610978593,-0.2690426345642728L-0.11250638377685403,-0.2812749745582273L-0.09927887795978856,-0.2922055480950807L-0.0849636519803548,-0.3017145975237937L-0.06971754645003704,-0.30969793970892884L-0.05370760089147798,-0.3160681074828833L-0.03710922361851425,-0.32075530795448415L-0.020104269925981504,-0.3237081871745025L-0.0028790496450509058,-0.3248943927802758L0.014377714106270777,-0.3243009284549577L0.03147695261311409,-0.3219342963178857L0.04823132304015214,-0.3178204256860032L0.0644572609989092,-0.31200438898683697L0.07997699171761326,-0.3045499079355463L0.09462047777879763,-0.2955386553864798L0.10822728208482957,-0.2850693605082907L0.12064832564032581,-0.2732567270865057L0.13174752089282088,-0.26023017680484556L0.14140326273647255,-0.24613243127417703L0.14950976084304937,-0.23111794834467805L0.1559781987228998,-0.21535122983330568L0.16073770681700678,-0.19900501920746932L0.16373613895869785,-0.1822584089714494L0.16494064369796813,-0.16529487849144575L0.1643380242288353,-0.148300283757244L0.1619348829763084,-0.13146082110509974L0.15775754925884017,-0.114960987211714L0.15185179081880198,-0.09898155771003508L0.14428231238152397,-0.08369760657359337L0.13513204673677795,-0.0692765879694131L0.12450124610978605,-0.055876501595112565L0.11250638377685414,-0.043644161601158006L0.09927887795978857,-0.032713588064304515L0.08496365198035487,-0.023204538635591552L0.06971754645003707,-0.015221196450456423L0.053707600891478,-0.008851028676501923L0.03710922361851425,-0.0041638282049010844L0.020104269925981504,-0.0012109489848827232L0.0028790496450507566,-0.00002474337910942509L-0.014377714106270988,-0.0006182077044274897L-0.03147695261311429,-0.0029848398414995033L-0.04823132304015241,-0.007098710473382064L-0.06445726099890953,-0.012914747172548388L-0.07997699171761377,-0.020369228223838503L-0.09462047777879824,-0.029380480772905154L-0.10822728208483015,-0.03984977565109425L-0.12064832564032599,-0.0516624090728797L-0.13174752089282107,-0.06468895935453992L-0.1414032627364727,-0.07878670488520843Z" stroke="black" stroke-width="0.04" fill="none"></path><path d="M-0.042696282751170406,-0.31938346061563494L-0.2423875769298951,-0.9185577077952447" stroke="black" stroke-width="0.04" fill="none" style="opacity: 0;"></path><g style="opacity: 0;"><path d="M0.1374494144712329,-0.26587264011811246L0.14401539961540474,-0.26751955832530566L0.15074508302957315,-0.2684706418838862L0.15756473289397538,-0.26871547052335903L0.1643996316975945,-0.2682513618499168L0.17117489485884296,-0.26708340073530673L0.1778162911767103,-0.2652243836059114L0.1842510561233384,-0.262694678242426L0.19040868906741015,-0.2595220006261872L0.19622172569382143,-0.2557411112770832L0.20162647715683898,-0.251393434410026L0.20656372786841587,-0.2465266040825802L0.2109793842765709,-0.2411939423062634L0.21482506752565947,-0.23545387483942767L0.21805864350524534,-0.2293692910624266L0.2206446844802247,-0.22300685494840145L0.22255485724451377,-0.21643627467884313L0.2237682335455768,-0.20972953890616727L0.22427151937874412,-0.20296012803097382L0.22405920063910775,-0.1962022091354019L0.22313360353521045,-0.1895298233930567L0.22150486910261652,-0.18301607485841792L0.2191908420966024,-0.17673232952352053L0.21621687548128904,-0.17074743341721185L0.21261555265725496,-0.16512695831365268L0.20842633047098696,-0.1599324833142377L0.2036951069174074,-0.15522092017407424L0.19847371827184254,-0.1510438897648838L0.19281937116093895,-0.14744715650592943L0.18679401579489083,-0.14447012695946107L0.18046366722797624,-0.1421454180841732L0.17389768208380468,-0.14049849987698013L0.16716799866963664,-0.13954741631839956L0.16034834880523388,-0.13930258767892664L0.15351345000161523,-0.13976669635236869L0.14673818684036685,-0.1409346574669788L0.14009679052249763,-0.14279367459637385L0.13366202557586956,-0.14532337995985944L0.12750439263179908,-0.14849605757609835L0.1216913560053865,-0.15227694692520205L0.11628660454236912,-0.1566246237922594L0.11134935383079195,-0.16149145411970517L0.1069336974226386,-0.1668241158960221L0.10308801417354876,-0.17256418336285773L0.09985443819396374,-0.17864876713985903L0.09726839721898299,-0.18501120325388398L0.09535822445469533,-0.19158178352344252L0.09414484815363273,-0.1982885192961186L0.09364156232046457,-0.2050579301713117L0.09385388106010041,-0.21181584906688355L0.09477947816399762,-0.2184882348092288L0.0964082125965927,-0.22500198334386798L0.09872223960260575,-0.23128572867876507L0.10169620621791964,-0.23727062478507394L0.10529752904195283,-0.24289109988863264L0.10948675122822157,-0.24808557488804783L0.11421797478180079,-0.2527971380282112L0.11943936342736568,-0.25697416843740145L0.12509371053827012,-0.26057090169635605L0.1311190659043183,-0.2635479312428246Z" fill="black"></path><path d="M-0.13744941447123293,-0.058533790308688737L-0.14401539961540474,-0.05646861570774297L-0.15074508302957318,-0.0551008038775289L-0.1575647328939754,-0.0544453408506916L-0.16439963169759442,-0.05450940801731702L-0.1711748948588429,-0.055292303444121005L-0.17781629117671022,-0.056785449564976616L-0.18425105612333842,-0.05897248715852158L-0.19040868906741018,-0.06182945458321451L-0.19622172569382143,-0.06532505030609245L-0.20162647715683893,-0.06942097584891387L-0.20656372786841587,-0.07407235539430486L-0.21097938427657095,-0.07922822745460192L-0.21482506752565947,-0.08483210321657746L-0.21805864350524537,-0.0908225854446961L-0.2206446844802247,-0.09713404116207837L-0.2225548572445138,-0.10369732073912695L-0.22376823354557682,-0.11044051551134158L-0.2242715193787441,-0.11728974562569343L-0.22405920063910778,-0.1241699694837562L-0.22313360353521045,-0.13100580591316158L-0.22150486910261646,-0.13772236005949806L-0.21919084209660242,-0.1442460439500094L-0.21621687548128904,-0.15050538273882227L-0.21261555265725496,-0.1564317978003157L-0.208426330470987,-0.16196035809089385L-0.2036951069174074,-0.16703049154708752L-0.19847371827184257,-0.1715866487257571L-0.19281937116093897,-0.17557891141541573L-0.18679401579489077,-0.17896353955060101L-0.18046366722797624,-0.18170345043718475L-0.17389768208380468,-0.18376862503813043L-0.16716799866963664,-0.18513643686834444L-0.16034834880523388,-0.18579189989518194L-0.15351345000161526,-0.1857278327285565L-0.14673818684036685,-0.18494493730175254L-0.14009679052249763,-0.1834517911808974L-0.13366202557586956,-0.18126475358735228L-0.1275043926317991,-0.17840778616265915L-0.1216913560053865,-0.17491219043978157L-0.11628660454236914,-0.17081626489695997L-0.11134935383079198,-0.16616488535156904L-0.10693369742263861,-0.1610090132912717L-0.10308801417354876,-0.15540513752929636L-0.09985443819396374,-0.14941465530117748L-0.09726839721898302,-0.14310319958379555L-0.09535822445469533,-0.1365399200067465L-0.09414484815363273,-0.12979672523453173L-0.09364156232046457,-0.1229474951201802L-0.0938538810601004,-0.11606727126211752L-0.09477947816399764,-0.10923143483271218L-0.09640821259659269,-0.10251488068637517L-0.09872223960260575,-0.09599119679586429L-0.10169620621791964,-0.08973185800705115L-0.1052975290419528,-0.08380544294555821L-0.10948675122822156,-0.07827688265497985L-0.11421797478180078,-0.07320674919878631L-0.11943936342736568,-0.06865059202011686L-0.12509371053827012,-0.06465832933045793L-0.1311190659043183,-0.06127370119527246Z" fill="black"></path><path d="M-0.10526869288713524,-0.29756446423165916L-0.10715337179872224,-0.3038215691109262L-0.10833070584270284,-0.3102406493767002L-0.10878779590091797,-0.3167513762423099L-0.1085196339990381,-0.3232824168217595L-0.1075291581749765,-0.32976221566775193L-0.10582722028913139,-0.3361197787481445L-0.10343246712913472,-0.34228545127142496L-0.10037113611174119,-0.3481916808391773L-0.09667676782020135,-0.3537737575642979L-0.09238983852661463,-0.3589705230460638L-0.08755731672541854,-0.3637250404343623L-0.08223214853673765,-0.3679852182417417L-0.07647267761760962,-0.37170438106864306L-0.07034200593667193,-0.37484178098885207L-0.06390730241578566,-0.3773630439922976L-0.05723906701327452,-0.3792405465939074L-0.05041035831162617,-0.3804537184822849L-0.04349599307237506,-0.3809892678923485L-0.03657172652800628,-0.3808413272326903L-0.029713422391776018,-0.3800115173721366L-0.02299622167899321,-0.378508929881169L-0.016493719446331576,-0.3763500274227736L-0.010277158468988344,-0.3735584633840657L-0.004414648689930248,-0.3701648227248242L0.001029579006894246,-0.36620628688227835L0.0059958765235608915,-0.36172622640349433L0.010429832065212502,-0.35677372576859173L0.014282866287069913,-0.3514030456109038L0.01751276453989915,-0.34567302822612433L0.020084139382542585,-0.3396464528838051L0.021968818294129465,-0.3333893480045383L0.023146152338110057,-0.3269702677387647L0.02360324239632536,-0.32045954087315437L0.023335080494445513,-0.3139285002937053L0.022344604670383905,-0.3074487014477129L0.02064266678453917,-0.3010911383673185L0.01824791362454236,-0.2949254658440382L0.015186582607148709,-0.2890192362762872L0.011492214315609114,-0.2834371595511651L0.007205285022022275,-0.27824039406939943L0.002372763220826266,-0.2734858766811006L-0.002952404967854833,-0.26922569887372294L-0.008711875886982709,-0.2655065360468203L-0.014842547567920672,-0.26236913612661206L-0.021277251088806633,-0.2598478731231653L-0.02794548649131813,-0.2579703705215568L-0.034774195192966685,-0.25675719863317975L-0.041688560432217484,-0.2562216492231153L-0.04861282697658612,-0.25636958988277303L-0.055471131112816416,-0.25719939974332656L-0.0621883318255997,-0.2587019872342952L-0.06869083405826093,-0.26086088969268967L-0.07490739503560438,-0.2636524537313981L-0.08076990481466201,-0.2670460943906387L-0.08621413251148673,-0.27100463023318533L-0.09118043002815325,-0.275484690711969L-0.09561438556980474,-0.2804371913468716L-0.09946741979166238,-0.2858078715045604L-0.10269731804449186,-0.29153788888933985Z" fill="black"></path><path d="undefined" fill="black"></path></g><path d="M-0.5875454813116125,-0.7465187923892509L-0.5773550100231897,-0.7543202469091996L-0.5595639337783656,-0.7667285822045203L-0.5431708594410469,-0.7765089309565488L-0.5283553929641445,-0.7835541376176887L-0.5152798556987148,-0.7877870134294559L-0.5040875059672706,-0.7891611821186706L-0.4949009694956188,-0.7876615880056106L-0.4878208958997494,-0.7833046609571885L-0.4829248559475791,-0.7761381363778929L-0.4802664916773864,-0.7662405322107059L-0.47987492868441395,-0.75372028867809L-0.4817544570147524,-0.7387145801882182L-0.4858844841626984,-0.7213878124234516L-0.4922197606865548,-0.7019298210772807L-0.5006908759709848,-0.68055379197474L-0.5112050187042372,-0.6574939253638988L-0.5236469937383005,-0.6330028699689334L-0.537880484191051,-0.6073489549178331L-0.553749544962539,-0.5808132498723253L-0.5710803113021375,-0.553686485569841L-0.5896829037071338,-0.5262658685167194L-0.6093535082822965,-0.498851824731527L-0.6298766097675611,-0.471744708214732L-0.65102735276832,-0.44524151020742136L-0.6725740053181792,-0.41963260529311347L-0.6942804977828758,-0.3951985699930579L-0.7159090092885909,-0.3722071087111524L-0.737222573337211,-0.3509101207084741L-0.7579876740608691,-0.3315409402422618L-0.7779768046706602,-0.3143117801069647L-0.7969709600686293,-0.29941140658645865L-0.8147620363134535,-0.2870030712911381L-0.8311551106507729,-0.2772227225391091L-0.8311551106507729,-0.2772227225391091L-0.845970577127675,-0.2701775158779696L-0.8590461143931042,-0.2659446400662026L-0.8702384641245485,-0.26457047137698797L-0.8794250005962002,-0.26607006549004825L-0.8865050741920696,-0.27042699253847036L-0.8914011141442396,-0.27759351711776614L-0.8940594784144322,-0.2874911212849533L-0.8944510414074047,-0.30001136481756896L-0.8925715130770663,-0.3150170733074406L-0.8884414859291201,-0.33234384107220727L-0.8821062094052636,-0.3518018324183782L-0.8736629831898938,-0.373112572561868L-0.8736626100768843,-0.373113446224665L-0.8298756197276933,-0.46239210177248574L-0.7769963384261278,-0.5466046926915192L-0.7156041226438287,-0.6248285682130388L-0.6463715983440538,-0.6962066911874325Z" fill="white" filter="url(#f1)" clip-path="url(#clip-sphere)" style="opacity: 0.9;"></path></svg>